<svg id="Layer_1" data-name="Layer 1" xmlns="http://www.w3.org/2000/svg" xmlns:xlink="http://www.w3.org/1999/xlink" viewBox="0 0 241.01 80.27"><defs><style>.cls-1{font-size:54.8px;font-family:PhotographSignature, Photograph Signature;}.cls-2{fill:url(#linear-gradient);}</style><linearGradient id="linear-gradient" x1="5" y1="44.48" x2="246.01" y2="44.48" gradientUnits="userSpaceOnUse"><stop offset="0"/><stop offset="0.48" stop-color="#0d2f70"/><stop offset="0.68" stop-color="#1343a0"/></linearGradient></defs><text class="cls-1" transform="translate(2.12 56.81)">Lawrence T.</text><path class="cls-2" d="M6.36,46.06A2.39,2.39,0,0,1,5.1,45c-.22-.55-.06-.88.38-.82,11.24,2.35,19.57,1,25.76-2.09C32,41,32.83,39.92,33.6,38.88c5.75-7.89,10.68-16,13-23a1.83,1.83,0,0,1,.49-.82c1.37-1,2.58,1.26,1.7,6a34.81,34.81,0,0,1-3.94,11A29.33,29.33,0,0,1,32.77,43.82,236.05,236.05,0,0,1,11.29,68.1c-1.15,1.15-1.65,1.7-1.54,1.75,1.27,1.32,10.2.55,20.34-.33,15-1.26,32.28-2.74,34.69,4,.17.5-.11.77-.54.61a2.13,2.13,0,0,1-1.16-1.21c-1.42-4.06-17.75-2.69-31.79-1.48-10.57.88-19.95,1.7-22.3-.71-1.15-1.21-1.1-2.63.65-4.33A240.23,240.23,0,0,0,28.39,45.62C22.69,47.43,15.45,47.93,6.36,46.06Zm30.58-7.89a30.43,30.43,0,0,0,6.25-7.78A33.83,33.83,0,0,0,46.53,22,98.28,98.28,0,0,1,36.94,38.17ZM48.45,17.23c.27-.38.44-.6.22-.44A1.48,1.48,0,0,0,48.45,17.23Z" transform="translate(-5 -14.79)"/><path class="cls-2" d="M55.79,53.74c.22.55.06.87-.38.76a2.14,2.14,0,0,1-1.21-1.09c-1.1-1-3.78.22-4.77,1a10.64,10.64,0,0,0-3.78,6.14c1.92-.55,6.91-6.36,6.91-6.36.22-.22.71-.06,1.2.44s.61.93.44,1.2a5.58,5.58,0,0,0-.44,3.24c.22,1.31,7.35-4.66,7.46-4.72a.71.71,0,0,1,1.09,0c.44.49.39.93.17,1.15-3.62,3.23-5.76,5.15-7.24,5.92-2.52,1.32-4.44.55-4.38-2.14-2,1.87-4,3.56-5.21,3a3.3,3.3,0,0,1-1.1-.83,3,3,0,0,1-.65-2.3,6.16,6.16,0,0,1,.6-2.08,12.83,12.83,0,0,1,3.4-4.38C50.36,50.67,54.86,50.56,55.79,53.74Z" transform="translate(-5 -14.79)"/><path class="cls-2" d="M60.83,55.16c-.27-.33-.33-.71-.16-.87a43.09,43.09,0,0,1,3.5-4.12c.17-.22.72-.05,1.16.44s.65,1,.49,1.26c-.06,0-6.74,8.33-5.43,9.16,2,1.31,6.8-7,7.35-7.84l.05-.11c.17-.28.66-.17,1.15.27s.72,1,.55,1.32c0,0-2.85,5.15-1.81,5.86.77.5,1.81-.05,3.35-1.7A45.37,45.37,0,0,0,76,52a17,17,0,0,1,1.37-2.19c.22-.22.71-.11,1.15.33s.71,1,.55,1.31v.06l-2.69,4.17c-.11.38-.16.65,0,.76,1.43.88,5-1.26,6-2.25.22-.21.49-.32.93.12s.33.71.11.93c-1.76,1.91-3.89,4.6-6.91,2.79a6.22,6.22,0,0,1-1-1,31.87,31.87,0,0,1-2.74,3.5c-1.86,2-3.45,2.52-5,1.48a3.63,3.63,0,0,1-1.48-2.52c-1.81,2.25-4.06,4.17-5.7,3.07C58.31,61.19,59.3,58,60.83,55.16Z" transform="translate(-5 -14.79)"/><path class="cls-2" d="M85.49,48.86c.17-.28.72-.11,1.15.33s.72,1,.55,1.31l-2,3.24c1.92-.94,4.55-1.81,5.65-.44.49.55.33,1.81,1,1.86a13,13,0,0,0,4.06-.6c.33-.11.65-.39,1,.11s.17.71-.16.77a19.18,19.18,0,0,1-5.37.93c-1.43-.11-1.87-.5-3.07-1.92-.82-1-5.7,3.34-5.7,3.34s-3,4.88-3.24,5.37c-.16.28-.71.11-1.15-.33s-.71-1-.55-1.31Z" transform="translate(-5 -14.79)"/><path class="cls-2" d="M102,55.22a17.52,17.52,0,0,1-5.65,1.64c-3.72,8,11.08,1.21,12.77-1.86a.78.78,0,0,1,1.21-.28c.44.44.44.66.27,1-1.53,2.69-10.08,8.6-13.86,6.47a5.11,5.11,0,0,1-2.58-5.37,9.29,9.29,0,0,1,2.19-4.06,23.75,23.75,0,0,1,3.57-3.23c1.59-1.1,3.07-1.76,3.67-1.65a2.47,2.47,0,0,1,1.31.82,2.38,2.38,0,0,1,.66,2A4.51,4.51,0,0,1,105,52.2,7.29,7.29,0,0,1,102,55.22Zm-3.89-.88a20.79,20.79,0,0,0,2.46-.93,7.5,7.5,0,0,0,2.74-2.8c.11-.22.17-.38.28-.6a12,12,0,0,0-2.14,1.32A20.75,20.75,0,0,0,98.1,54.34Z" transform="translate(-5 -14.79)"/><path class="cls-2" d="M110.87,51.6c.16-.27.71-.17,1.15.27s.71,1,.55,1.32l-1.37,2.47c3-2.47,6.19-4.88,7.39-4.55h.11c1.65.49,1.92,1.53,1.54,2.9a17.17,17.17,0,0,1-.93,2.14c-.72,1.42-1.54,3-1.54,3,1.76,1.15,7.68-4,7.73-4,.17-.22.77-.94,1.21-.44s.16.55-.06.82c0,0-6,7.07-8.82,5.21-2.47-1.59-1.26-4-.22-6.14a12.84,12.84,0,0,0,.6-1.32c-3.12,1.65-10.41,8.61-10.63,8.83s-.66,0-1.1-.33-.71-1-.55-1.32Z" transform="translate(-5 -14.79)"/><path class="cls-2" d="M133.12,56c-.17.33-.66.22-1.1-.22s-.77-1-.66-1.31c.06,0,.93-1.92.72-1.92-1.05-.05-3.29,1.43-5,3.34a12.57,12.57,0,0,0-1.65,2.25,5.58,5.58,0,0,0-.65,2.14,1.68,1.68,0,0,0,.38,1.2c2.3,2,13.54-6.41,13.59-6.41.22,0,.71-.71,1.1-.6.44.49.6,1,.38,1.26-.05,0-11.89,10.14-15.56,6.85A4.42,4.42,0,0,1,123,59.05a5.42,5.42,0,0,1,.71-2.52,14.16,14.16,0,0,1,1.7-2.36c1.81-2,4.28-3.61,5.54-3.56C135.64,50.78,133.12,56,133.12,56Z" transform="translate(-5 -14.79)"/><path class="cls-2" d="M145.23,55.22a17.52,17.52,0,0,1-5.65,1.64c-3.72,8,11.08,1.21,12.77-1.86a.78.78,0,0,1,1.21-.28c.44.44.44.66.27,1-1.53,2.69-10.08,8.6-13.86,6.47a5.11,5.11,0,0,1-2.58-5.37,9.39,9.39,0,0,1,2.19-4.06,23.75,23.75,0,0,1,3.57-3.23c1.59-1.1,3.07-1.76,3.67-1.65a2.47,2.47,0,0,1,1.31.82,2.38,2.38,0,0,1,.66,2,4.51,4.51,0,0,1-.55,1.53A7.29,7.29,0,0,1,145.23,55.22Zm-3.89-.88a20.79,20.79,0,0,0,2.46-.93,7.43,7.43,0,0,0,2.74-2.8c.11-.22.17-.38.28-.6a12,12,0,0,0-2.14,1.32A20.75,20.75,0,0,0,141.34,54.34Z" transform="translate(-5 -14.79)"/><path class="cls-2" d="M159.75,31.37c-.33.06-.93-.32-1.26-.82s-.38-1-.06-1.09c11-2.09,25.38-2.91,40.56-3.35,1.32-2,2.09-3.18,2.09-3.23.16-.28.65-.11,1.15.33s.71,1,.55,1.31l-1,1.48c4.16-.11,8.38-.16,12.55-.27,10.3-.22,20.66-.49,30.2-1,.38,0,.93.39,1.26.93s.28.88,0,.94l-4.49,2c-.33.11-.88-.17-1.26-.66s-.44-.77-.33-1c-7.84.33-16,.5-24.23.72l-15,.33c-7.07,11-28.45,44.39-28.12,44.78A31.06,31.06,0,0,0,175,70c.22-.21.77-.05,1.21.44s.66,1,.44,1.26c0,0-3.4,3.84-5.27,1.65-1.26-1.54,18.37-32.72,26.31-45.27C183.48,28.52,170.05,29.35,159.75,31.37Z" transform="translate(-5 -14.79)"/><path class="cls-2" d="M204.58,58.83a1.31,1.31,0,0,1,1.32,1.32,1.35,1.35,0,0,1-2.69,0A1.31,1.31,0,0,1,204.58,58.83Z" transform="translate(-5 -14.79)"/></svg>