<?xml version="1.0" encoding="utf-8"?>
<!-- Generator: Adobe Illustrator 24.1.0, SVG Export Plug-In . SVG Version: 6.00 Build 0)  -->
<svg version="1.1" id="Layer_1" xmlns="http://www.w3.org/2000/svg" xmlns:xlink="http://www.w3.org/1999/xlink" x="0px" y="0px"
	 viewBox="0 0 24 24" style="enable-background:new 0 0 24 24;" xml:space="preserve">
<style type="text/css">
	.st0{fill:#F7C05E;}
</style>
<path class="st0" d="M12,0C5.4,0,0,5.4,0,12s5.4,12,12,12s12-5.4,12-12S18.6,0,12,0z M7.5,14C6.7,14,6,13.3,6,12.5S6.7,11,7.5,11
	S9,11.7,9,12.5S8.3,14,7.5,14z M12,14c-0.8,0-1.5-0.7-1.5-1.5S11.2,11,12,11s1.5,0.7,1.5,1.5S12.8,14,12,14z M16.5,14
	c-0.8,0-1.5-0.7-1.5-1.5s0.7-1.5,1.5-1.5c0.8,0,1.5,0.7,1.5,1.5S17.3,14,16.5,14z"/>
</svg>
